<svg width="708" height="257" viewBox="0 0 708 257" fill="none" xmlns="http://www.w3.org/2000/svg">
<path d="M90.6749 64.0219C82.1754 59.379 71.3269 57.6751 60.8201 56.0565C42.1982 53.1599 30.8371 50.8171 31.6486 39.0606C31.9903 34.2899 33.8696 30.7118 37.4146 28.0708C48.4767 19.8072 71.5832 24.365 74.1885 24.9187C82.8161 26.7503 98.3628 33.225 98.3628 33.225L106.777 14.866C106.777 14.866 84.61 0 55.3531 0C33.9977 0 22.0814 8.22105 15.8457 14.8234C8.84112 22.2778 5.29613 31.8193 5.89408 41.7442C7.04727 60.8698 19.1344 73.4783 39.9345 77.2693C43.7358 77.9508 47.7933 78.5046 51.8081 79.0583C67.7392 81.2307 82.7734 83.2328 82.4317 93.6688C82.2609 98.7377 80.3389 102.827 76.7939 105.851C70.5581 111.133 59.5388 113.007 44.9744 111.261C30.0256 109.472 12.8559 98.61 12.8559 98.61L0 116.841C0 116.841 22.8075 135.882 52.5342 135.882C53.004 135.882 53.4738 135.882 53.9436 135.882C84.9943 135.328 96.6117 123.316 103.232 112.965C107.289 106.618 110.151 95.3727 107.375 84.681C105.111 75.8636 99.3452 68.7075 90.7176 63.9793" fill="#6A757D"/>
<path d="M327.292 2.72614C290.689 2.72614 261.005 32.0748 261.005 68.3241C261.005 104.573 290.689 133.922 327.292 133.922C363.895 133.922 393.579 104.573 393.579 68.3241C393.579 32.0748 363.895 2.72614 327.292 2.72614ZM327.292 107.427C305.467 107.427 287.742 89.9203 287.742 68.2815C287.742 46.6427 305.467 29.1357 327.292 29.1357C349.117 29.1357 366.842 46.6427 366.842 68.2815C366.842 89.9203 349.117 107.427 327.292 107.427Z" fill="#6A757D"/>
<path d="M193.352 29.1783C204.542 29.1783 214.664 33.8213 221.882 41.233L240.376 22.0648C228.374 10.0953 211.76 2.72614 193.352 2.72614C156.748 2.72614 127.064 32.1174 127.064 68.3241C127.064 104.531 156.748 133.922 193.352 133.922C211.247 133.922 227.435 126.894 239.351 115.521L220.003 97.2043C212.956 103.551 203.645 107.47 193.352 107.47C171.526 107.47 153.801 89.9629 153.801 68.3241C153.801 46.6853 171.526 29.1783 193.352 29.1783Z" fill="#6A757D"/>
<path d="M483.144 1.74643C470.715 1.74643 459.098 5.40969 449.231 11.5861V5.49489H420.573V176.476H449.231V125.275C459.098 131.494 470.715 135.115 483.144 135.115C519.106 135.115 548.235 105.255 548.235 68.4093C548.235 31.5637 519.064 1.74643 483.144 1.74643ZM483.144 108.79C468.665 108.79 456.065 100.782 449.231 88.8554C445.772 82.8494 443.764 75.9062 443.764 68.4519C443.764 60.9976 445.772 54.0118 449.231 48.0484C456.065 36.1215 468.708 28.1134 483.144 28.1134C504.884 28.1134 522.523 46.1742 522.523 68.4519C522.523 90.7297 504.884 108.79 483.144 108.79Z" fill="#6A757D"/>
<path d="M705.581 75.3951C705.795 73.3505 705.88 71.2632 705.88 69.1334C705.88 62.8718 704.983 56.8658 703.318 51.1579C695.416 23.6834 669.875 3.57806 639.55 3.57806C602.947 3.57806 573.263 32.9268 573.263 69.176C573.263 105.425 602.947 134.774 639.55 134.774C657.318 134.774 673.463 127.831 685.379 116.543L666.458 97.8432C659.411 104.36 649.929 108.322 639.55 108.322C619.861 108.322 603.545 94.0947 600.513 75.4377H705.539L705.581 75.3951ZM604.485 51.1579C611.062 38.592 624.303 30.0302 639.593 30.0302C654.884 30.0302 668.124 38.6346 674.701 51.1579H604.485Z" fill="#6A757D"/>
<path d="M310.763 148.192V176.476H339.593V148.916C335.578 149.512 331.478 149.81 327.292 149.81C321.655 149.81 316.102 149.257 310.763 148.149" fill="#F94515"/>
<path d="M38.7648 240H32.7168L28.1088 228.019H10.7712L6.048 240H0.3456L16.2432 199.68H22.8672L38.7648 240ZM17.1648 211.661L12.6144 223.238H26.208L21.7728 211.718C20.7936 209.184 20.1024 207.283 19.584 204.922H19.3536C18.8352 207.456 18.2016 209.011 17.1648 211.661ZM82.0161 210.682V197.952H87.5457V240H82.0161V232.742H81.8433C80.3457 237.869 75.6225 240.691 70.7841 240.691C63.0657 240.691 57.4785 233.894 57.4785 224.102C57.4785 214.368 63.6417 207.629 71.5905 207.629C76.1985 207.629 80.3457 210.048 81.7857 215.578H82.0161V210.682ZM72.3969 236.314C77.9841 236.314 82.1313 231.36 82.1313 224.102C82.1313 216.902 78.1569 211.949 72.4545 211.949C66.8673 211.949 63.2385 216.902 63.2385 224.102C63.2385 231.36 66.8673 236.314 72.3969 236.314ZM95.4904 203.77V197.952H101.481V203.77H95.4904ZM95.7208 240V208.32H101.25V240H95.7208ZM123.385 227.904L130.124 208.32H136.057L123.903 240H117.625L105.759 208.32H111.865L118.489 227.846C119.295 230.266 120.159 233.088 120.851 236.083H121.081C121.715 233.203 122.579 230.208 123.385 227.904ZM140.322 203.77V197.952H146.312V203.77H140.322ZM140.552 240V208.32H146.082V240H140.552ZM165.912 240.691C157.848 240.691 152.261 237.005 152.203 229.344H157.848C157.964 234.355 160.959 236.486 165.97 236.486C170.578 236.486 173.4 234.931 173.4 231.706C173.4 228.48 170.693 227.328 167.525 226.694L163.666 225.946C157.618 224.794 152.895 222.662 152.895 216.672C152.895 210.278 158.597 207.629 165.567 207.629C173.458 207.629 178.124 211.373 178.181 218.054H172.594C172.421 213.389 169.944 211.834 165.394 211.834C160.671 211.834 158.424 213.331 158.424 216.269C158.424 219.264 160.786 220.128 164.53 220.819L168.504 221.568C173.746 222.547 178.93 224.621 178.93 231.014C178.93 237.523 173.688 240.691 165.912 240.691ZM184.928 203.77V197.952H190.918V203.77H184.928ZM185.158 240V208.32H190.688V240H185.158ZM212.247 240.691C202.858 240.691 196.81 233.894 196.81 224.045C196.81 214.368 202.858 207.629 212.247 207.629C221.635 207.629 227.683 214.368 227.683 224.045C227.683 233.894 221.635 240.691 212.247 240.691ZM212.247 236.314C218.122 236.314 221.923 231.302 221.923 224.045C221.923 216.845 218.122 212.006 212.247 212.006C206.371 212.006 202.57 216.845 202.57 224.045C202.57 231.302 206.371 236.314 212.247 236.314ZM249.539 207.629C255.818 207.629 260.311 212.006 260.311 218.573V240H254.781V219.61C254.781 214.714 252.074 212.122 248.042 212.122C242.973 212.122 239.344 216.211 239.344 223.584V240H233.815V208.32H239.171V215.578H239.344C240.266 210.451 244.643 207.629 249.539 207.629ZM297.859 240.691C288.47 240.691 282.422 233.894 282.422 224.045C282.422 214.368 288.47 207.629 297.859 207.629C307.248 207.629 313.296 214.368 313.296 224.045C313.296 233.894 307.248 240.691 297.859 240.691ZM297.859 236.314C303.734 236.314 307.536 231.302 307.536 224.045C307.536 216.845 303.734 212.006 297.859 212.006C291.984 212.006 288.182 216.845 288.182 224.045C288.182 231.302 291.984 236.314 297.859 236.314ZM330.553 201.696C328.134 201.696 326.637 202.963 326.637 206.304V208.32H333.203V212.698H326.637V240H321.107V212.698H316.672V208.32H321.107V205.786C321.107 199.91 324.505 197.261 329.632 197.261C331.302 197.261 332.569 197.549 333.549 197.837V202.387C332.627 201.926 331.59 201.696 330.553 201.696ZM361.475 240H355.888V199.68H363.088L380.771 227.27C382.211 229.517 383.363 231.763 384.227 233.606H384.457C384.285 231.59 384.169 229.171 384.169 226.291V199.68H389.757V240H382.557L364.816 212.64C363.376 210.394 362.224 208.147 361.417 206.246H361.187C361.36 208.205 361.475 210.624 361.475 213.446V240ZM426.165 224.563V225.6H402.031C402.492 232.282 406.293 236.314 411.708 236.314C416.028 236.314 419.484 233.894 420.002 230.381H425.589C424.956 236.89 418.793 240.691 411.708 240.691C402.549 240.691 396.328 234.298 396.328 224.16C396.328 214.771 402.089 207.629 411.593 207.629C421.269 207.629 426.165 214.771 426.165 224.563ZM411.593 212.006C406.639 212.006 403.01 215.462 402.146 221.338H420.29C419.887 215.232 416.373 212.006 411.593 212.006ZM446.33 208.32V212.698H439.303V231.187C439.303 234.816 440.8 236.083 443.219 236.083C444.256 236.083 445.351 235.853 446.33 235.392V239.885C445.351 240.23 444.083 240.518 442.413 240.518C437.287 240.518 433.773 237.869 433.773 231.706V212.698H429.28V208.32H433.773V200.832H439.303V208.32H446.33ZM465.709 240.691C456.551 240.691 450.272 233.894 450.272 224.16C450.272 214.426 456.435 207.629 465.824 207.629C473.831 207.629 479.475 212.582 480.051 220.186H474.291C473.658 215.866 471.296 212.006 465.882 212.006C459.776 212.006 456.032 216.902 456.032 224.16C456.032 231.418 459.834 236.314 465.767 236.314C470.547 236.314 473.888 233.146 474.407 227.789H480.167C479.591 235.738 473.715 240.691 465.709 240.691ZM499.965 240.691C490.576 240.691 484.528 233.894 484.528 224.045C484.528 214.368 490.576 207.629 499.965 207.629C509.354 207.629 515.402 214.368 515.402 224.045C515.402 233.894 509.354 240.691 499.965 240.691ZM499.965 236.314C505.84 236.314 509.642 231.302 509.642 224.045C509.642 216.845 505.84 212.006 499.965 212.006C494.09 212.006 490.288 216.845 490.288 224.045C490.288 231.302 494.09 236.314 499.965 236.314ZM556.957 207.629C562.717 207.629 567.268 211.718 567.268 218.285V240H561.738V218.861C561.738 214.944 559.204 212.122 555.287 212.122C550.449 212.122 547.165 216.384 547.165 223.814V240H541.636V218.861C541.636 214.944 539.044 212.122 535.242 212.122C530.289 212.122 527.063 216.902 527.063 223.814V240H521.533V208.32H526.89V215.578H527.063C527.985 210.336 532.42 207.629 536.913 207.629C541.636 207.629 545.783 210.566 546.877 215.52H546.993C548.375 209.875 552.637 207.629 556.957 207.629ZM591.615 207.629C599.448 207.629 605.093 214.253 605.093 223.987C605.093 233.722 599.103 240.634 591.442 240.634C586.776 240.634 582.283 238.042 580.786 232.858H580.613V236.832V249.792H575.083V208.32H580.613V215.578H580.671C582.111 210.509 586.546 207.629 591.615 207.629ZM590.059 236.256C595.474 236.256 599.333 231.245 599.333 223.987C599.333 216.787 595.474 211.949 590.117 211.949C584.357 211.949 580.555 217.478 580.555 224.102C580.555 230.784 584.415 236.256 590.059 236.256ZM638.556 236.198C639.362 236.198 640.169 235.968 640.86 235.622V239.77C639.65 240.173 638.441 240.403 637.116 240.403C632.623 240.403 630.665 237.811 630.665 233.952V232.858H630.434C629.109 237.696 624.962 240.691 619.433 240.691C614.076 240.691 609.641 238.099 609.641 232.166C609.641 224.851 616.437 223.872 622.601 222.778C627.497 221.914 630.492 220.877 630.492 217.133C630.492 214.195 628.649 211.891 623.522 211.891C618.684 211.891 615.919 214.022 615.919 218.803H610.389C610.505 211.718 615.228 207.629 623.522 207.629C631.529 207.629 635.906 211.488 635.906 218.4V232.8C635.906 235.68 637.346 236.198 638.556 236.198ZM621.103 236.314C627.151 236.314 630.492 231.994 630.492 225.658V224.16C628.533 225.6 625.999 226.291 623.81 226.752C619.433 227.674 615.285 228.134 615.285 231.994C615.285 235.046 617.877 236.314 621.103 236.314ZM660.952 207.629C667.23 207.629 671.723 212.006 671.723 218.573V240H666.194V219.61C666.194 214.714 663.486 212.122 659.454 212.122C654.386 212.122 650.757 216.211 650.757 223.584V240H645.227V208.32H650.584V215.578H650.757C651.678 210.451 656.056 207.629 660.952 207.629ZM691.949 229.286L699.322 208.32H705.024L693.62 238.848C691.949 243.283 687.975 250.541 680.487 250.541C678.471 250.541 677.204 250.022 676.628 249.734V245.184C677.376 245.587 678.701 246.106 680.372 246.106C684 246.106 686.362 243.571 687.572 240.518L674.784 208.32H680.89L688.493 229.286C689.069 230.784 689.703 232.512 690.106 234.701H690.279C690.74 232.57 691.373 230.842 691.949 229.286Z" fill="#232529"/>
</svg>
